<svg xmlns="http://www.w3.org/2000/svg" xml:space="preserve" version="1.1" viewBox="0 0 5120 5120"><path fill="#fff" d="M4245 2165h-152a234 234 0 01-228-234c0-64 27-122 75-165l98-96a246 246 0 00 0-349L3815 1100a252 252 0 00-350 0l-94 94c-45 50-105 77-170 77a234 234 0 01-235-227V891A250 250 0 00 2721 640h-304a248 248 0 00-244 251v152a234 234 0 01-235 227c-64 0-123-27-166-74l-97-96c-44-45-109-70-175-70s-130 26-175 70L1100 1320a246 246 0 00 0 348l94 94c50 45 78 105 78 169a233 233 0 01-228 234H892A248 248 0 00 640 2408v304a248 248 0 00 252 243h152a234 234 0 01 228 234c0 64-28 124-78 169l-94 93a246 246 0 00 0 348l223 222c44 45 109 70 175 70s130-26 175-70l97-96a222 222 0 01 166-74 234 234 0 01 235 227V4230a250 250 0 00 245 251H2720a248 248 0 00 244-251v-152a233 233 0 01 405-150l94 94a252 252 0 00 350 0l223-222a247 247 0 00 0-349l-98-96a220 220 0 01-75-165 233 233 0 01 228-234h152c136 0 233-107 233-243v-305c2-136-95-243-231-243zM3368 2560a800 800 0 11-1600 0 800 800 0 11 1600 0"/></svg>
